<svg xmlns="http://www.w3.org/2000/svg" viewBox="0 0 886.46 172.5"><defs><style>.cls-1{font-size:37.49px;font-family:LucidaBright-Demi, Lucida Bright;font-weight:700;}.cls-1,.cls-2,.cls-3{fill:#b99434;}.cls-2{font-size:28.31px;font-family:LucidaBright, Lucida Bright;}</style></defs><title>main logo horizontal</title><g id="Layer_2" data-name="Layer 2"><g id="Layer_1-2" data-name="Layer 1"><text class="cls-1" transform="translate(274.45 73.94)">QUINN CORPORATE CHAMBERS</text><text class="cls-2" transform="translate(359.43 124.89)">Effective | Efficient | Expeditious</text><path class="cls-3" d="M85.29,120.21l-2.92.49a42.88,42.88,0,0,1-17-84L68.27,36l3.8,18.81-2.63.69A23.65,23.65,0,0,0,75.33,102a23.37,23.37,0,0,0,3.47-.26l2.69-.4Z"/><path class="cls-3" d="M133.77,172.5H94.64c6.65-7.15,4.49-17.36,4.39-17.82h0l-.09-1c-2.26.61-4.59,1.14-6.93,1.57a79.5,79.5,0,0,1-13.76,1.2A78.24,78.24,0,0,1,61,1.92l1.89,9.33.11.61,1.5,7.72,1.13,5.83a12.22,12.22,0,0,0-2.56-2.77l-.16-.11c-2.46-1.76-6.76-.31-8.59.43l-.3.13-.19.09-.27.11-.07,0h0a60.24,60.24,0,0,0,35,114.28,56.94,56.94,0,0,0,7-1.64l-1.79-8.85L90.22,110,76.93,44.32,73.47,27.21l-1.79-8.85L68.12.66A79,79,0,0,1,78.25,0c2.69,0,5.33.14,7.93.4l.26,0a72.76,72.76,0,0,1,7.35,1.13,78.21,78.21,0,0,1,28.57,141.28L120,131.06l-1.59-7.93-.94-4.7s2.6,2.92,6-.39A60.28,60.28,0,0,0,90.24,19.19a1.62,1.62,0,0,1-.26,0l2,9.69,4.14,20.52h0l9.8,48.55L110,118.42l2,9.69,3.4,16.79a48.09,48.09,0,0,0,1.21,6A39.44,39.44,0,0,0,121.28,162a1.52,1.52,0,0,0,.23.33,19.31,19.31,0,0,0,1.92,2.5l.09.1c.16.17.3.33.43.49C129,171.2,133.77,172.5,133.77,172.5Z"/><rect class="cls-3" x="218.69" width="4" height="172.5"/></g></g></svg>