<svg xmlns="http://www.w3.org/2000/svg" viewBox="0 0 877.07 537.67"><defs><style>.cls-1{font-size:53.73px;font-family:LucidaBright-Demi, Lucida Bright;font-weight:700;}.cls-1,.cls-2,.cls-3{fill:#fff;}.cls-2{font-size:40.57px;font-family:LucidaBright, Lucida Bright;}</style></defs><title>main white</title><g id="Layer_2" data-name="Layer 2"><g id="Layer_1-2" data-name="Layer 1"><text class="cls-1" transform="translate(0 456.08)">QUINN CORPORATE CHAMBERS</text><text class="cls-2" transform="translate(121.78 529.11)">Effective | Efficient | Expeditious</text><path class="cls-3" d="M453.62,257.33l-6.24,1A91.79,91.79,0,0,1,411,78.53l6.15-1.47,8.14,40.26-5.63,1.47a50.62,50.62,0,0,0,12.6,99.64,50,50,0,0,0,7.43-.55l5.75-.86Z"/><path class="cls-3" d="M557.39,369.27H473.62c14.23-15.3,9.61-37.17,9.39-38.15v0c-.06-.67-.12-1.35-.18-2C478,330.35,473,331.49,468,332.4A170.19,170.19,0,0,1,438.53,335C346.17,335,271,259.87,271,167.5,271,87.8,327,21,401.64,4.1l4,20,.24,1.32,3.21,16.52,2.42,12.48a26.16,26.16,0,0,0-5.48-5.94l-.34-.24c-5.26-3.76-14.47-.67-18.39.92a6.75,6.75,0,0,0-.64.28l-.4.18c-.24.09-.43.18-.58.24l-.15.09a.24.24,0,0,1-.09,0,129,129,0,0,0,74.89,244.63,121.88,121.88,0,0,0,15-3.52l-3.82-18.94-7.4-36.65L435.72,94.87l-7.4-36.62-3.82-18.94L416.84,1.41A169.18,169.18,0,0,1,438.53,0c5.75,0,11.41.31,17,.86.18,0,.37,0,.55.06a155.75,155.75,0,0,1,15.73,2.42C548.27,18.78,606,86.52,606,167.5a167.3,167.3,0,0,1-73.09,138.25l-5.08-25.21-3.4-17-2-10.07s5.57,6.24,12.79-.83a129,129,0,0,0-71-211.59,3.47,3.47,0,0,1-.55-.09l4.19,20.74,8.87,43.93h0l21,103.93,8.87,43.9,4.19,20.74,7.28,35.95a103,103,0,0,0,2.6,12.85c1.9,7.19,5,16.18,10,23.83a3.25,3.25,0,0,0,.49.7,41.33,41.33,0,0,0,4.1,5.35c.06.06.12.15.18.21.34.37.64.7.92,1C547.2,366.49,557.39,369.27,557.39,369.27Z"/></g></g></svg>